<?xml version="1.0" encoding="utf-8"?>
<!-- Generator: Adobe Illustrator 25.2.1, SVG Export Plug-In . SVG Version: 6.00 Build 0)  -->
<svg version="1.1" id="Layer_1" xmlns="http://www.w3.org/2000/svg" xmlns:xlink="http://www.w3.org/1999/xlink" x="0px" y="0px"
	 viewBox="0 0 2046.8 1867.6" style="enable-background:new 0 0 2046.8 1867.6;" xml:space="preserve">
<style type="text/css">
	.st0{opacity:0.3;}
	.st1{fill:#993794;}
	.st2{clip-path:url(#SVGID_2_);}
	.st3{clip-path:url(#SVGID_4_);}
	.st4{fill:#5E3682;}
	.st5{fill:url(#SVGID_5_);}
	.st6{fill:url(#SVGID_6_);}
	.st7{fill:url(#SVGID_7_);}
	.st8{fill:url(#SVGID_8_);}
	.st9{fill:url(#SVGID_9_);}
	.st10{fill:url(#SVGID_10_);}
	.st11{fill:url(#SVGID_11_);}
	.st12{fill:url(#SVGID_12_);}
	.st13{fill:url(#SVGID_13_);}
	.st14{fill:url(#SVGID_14_);}
	.st15{fill:url(#SVGID_15_);}
	.st16{fill:url(#SVGID_16_);}
	.st17{fill:url(#SVGID_17_);}
	.st18{fill:url(#SVGID_18_);}
	.st19{fill:url(#SVGID_19_);}
	.st20{fill:url(#SVGID_20_);}
	.st21{fill:url(#SVGID_21_);}
	.st22{fill:url(#SVGID_22_);}
	.st23{fill:url(#SVGID_23_);}
	.st24{opacity:0.3;fill:none;}
</style>
<g class="st0">
	<g>
		<path class="st1" d="M501.7,1448.1c4.9,10.4,13,19.8,21.2,27.7c19.5,19.1,44.8,30.9,71.7,35.1c34.4,5.4,71.6-0.1,101.1-19.2
			c24.1-15.6,41.3-39.7,51.6-66.2c11.1-28.6,13.6-59.5,7.1-89.5c-3-14-7.9-27.6-14.4-40.4c-1-1.9-2.3-3.7-3.1-5.6
			c0.4,0.8-0.1-0.3-0.2-0.5c-0.2-0.6-0.5-1.3-0.7-2c-0.7-2.4-1.2-4.8-1.6-7.3c-2.5-16,3.9-30.8,14.9-42.2c3.9-4,7.9-8,11.8-12
			c14-14.2,28-28.3,42.1-42.4c37.3-37.5,74.7-75,112.1-112.5c20.6-20.6,41.2-41.3,61.8-61.9c0,0,0,0,0,0c1.8-1.8-1-4.5-2.7-2.7
			c-20.2,20.3-40.5,40.6-60.7,60.9c-37.4,37.5-74.8,75-112.1,112.6c-14.2,14.3-28.4,28.5-42.5,42.8c-4,4.1-8.1,8.2-12.1,12.3
			c-10.4,10.7-16.9,23.6-16.9,38.8c0,6.5,1,13.9,4.3,19.7c5.9,10.3,10.2,21.5,13.5,32.9c9.1,31,8,63.3-2.7,93.6
			c-9.6,27.4-27.1,52.2-51.5,68.4c-30.1,19.9-69.2,24.5-104.2,17.8c-24.8-4.8-47.8-16.8-65.7-34.8c-7.3-7.3-14.4-15.8-18.8-25.2
			C504,1443.9,500.7,1445.9,501.7,1448.1L501.7,1448.1z"/>
	</g>
	<g>
		<path class="st1" d="M1903.5,1165.8c-4.9-10.4-13-19.8-21.2-27.7c-19.5-19-44.8-30.9-71.7-35.1c-34.4-5.4-71.6,0.1-101.1,19.2
			c-24.1,15.6-41.3,39.7-51.6,66.2c-11.1,28.6-13.6,59.5-7.1,89.5c3,14,7.9,27.6,14.4,40.4c1,1.9,2.3,3.7,3.1,5.6
			c-0.4-0.8,0.1,0.3,0.2,0.5c0.2,0.7,0.5,1.3,0.7,2c0.7,2.4,1.2,4.8,1.6,7.3c2.5,16-3.9,30.8-14.9,42.2c-3.9,4-7.9,8-11.8,12
			c-14,14.2-28,28.3-42.1,42.4c-37.3,37.5-74.7,75.1-112.1,112.5c-20.6,20.6-41.2,41.3-61.8,61.9c0,0,0,0,0,0
			c-1.8,1.8,1,4.5,2.7,2.7c20.2-20.3,40.5-40.6,60.7-60.9c37.4-37.5,74.8-75,112.1-112.6c14.2-14.3,28.4-28.5,42.5-42.8
			c4-4.1,8.1-8.2,12.1-12.3c10.4-10.7,16.9-23.6,16.9-38.8c0-6.5-1-13.9-4.3-19.7c-5.9-10.3-10.2-21.5-13.5-32.9
			c-9.1-31-8-63.3,2.7-93.6c9.6-27.4,27.1-52.2,51.5-68.4c30.1-19.9,69.2-24.5,104.2-17.8c24.8,4.8,47.8,16.8,65.7,34.8
			c7.3,7.3,14.4,15.8,18.8,25.2C1901.2,1170,1904.5,1168.1,1903.5,1165.8L1903.5,1165.8z"/>
	</g>
	<g>
		<path class="st1" d="M2016.7,647.6c-4.9-10.4-13-19.8-21.2-27.7c-19.5-19.1-44.8-30.9-71.7-35.1c-34.4-5.4-71.6,0.1-101.1,19.2
			c-24.1,15.6-41.3,39.7-51.6,66.2c-11.1,28.6-13.6,59.5-7.1,89.5c3,14,7.9,27.6,14.4,40.4c1,1.9,2.3,3.7,3.1,5.6
			c-0.4-0.8,0.1,0.3,0.2,0.5c0.2,0.6,0.5,1.3,0.7,2c0.7,2.4,1.2,4.8,1.6,7.3c2.5,16-3.9,30.8-14.9,42.2c-3.9,4-7.9,8-11.8,12
			c-14,14.2-28,28.3-42.1,42.4c-37.3,37.5-74.7,75-112.1,112.5c-20.6,20.6-41.2,41.3-61.8,61.9c0,0,0,0,0,0c-1.8,1.8,1,4.5,2.7,2.7
			c20.2-20.3,40.5-40.6,60.7-60.9c37.4-37.5,74.8-75,112.1-112.6c14.2-14.3,28.4-28.5,42.5-42.8c4-4.1,8.1-8.2,12.1-12.3
			c10.4-10.7,16.9-23.6,16.9-38.8c0-6.5-1-13.9-4.3-19.7c-5.9-10.3-10.2-21.5-13.5-32.9c-9.1-31-8-63.3,2.7-93.6
			c9.6-27.4,27.1-52.2,51.5-68.4c30.1-19.9,69.2-24.5,104.2-17.8c24.8,4.8,47.8,16.8,65.7,34.8c7.3,7.3,14.4,15.8,18.8,25.2
			C2014.4,651.8,2017.8,649.8,2016.7,647.6L2016.7,647.6z"/>
	</g>
	<g>
		<path class="st1" d="M1565,299c-4.9-10.4-13-19.8-21.2-27.7c-19.5-19.1-44.8-30.9-71.7-35.1c-34.4-5.4-71.6,0.1-101.1,19.2
			c-24.1,15.6-41.3,39.7-51.6,66.2c-11.1,28.6-13.6,59.5-7.1,89.5c3,14,7.9,27.6,14.4,40.4c1,1.9,2.3,3.7,3.1,5.6
			c-0.4-0.8,0.1,0.3,0.2,0.5c0.2,0.6,0.5,1.3,0.7,2c0.7,2.4,1.2,4.8,1.6,7.3c2.5,16-3.9,30.8-14.9,42.2c-3.9,4-7.9,8-11.8,12
			c-14,14.2-28,28.3-42.1,42.4c-37.3,37.5-74.7,75-112.1,112.5c-20.6,20.6-41.2,41.3-61.8,61.9c0,0,0,0,0,0c-1.8,1.8,1,4.5,2.7,2.7
			c20.2-20.3,40.5-40.6,60.7-60.9c37.4-37.5,74.8-75,112.1-112.6c14.2-14.3,28.4-28.5,42.5-42.8c4-4.1,8.1-8.2,12.1-12.3
			c10.4-10.7,16.9-23.6,16.9-38.8c0-6.5-1-13.9-4.3-19.7c-5.9-10.3-10.2-21.5-13.5-32.9c-9.1-31-8-63.3,2.7-93.6
			c9.6-27.4,27.1-52.2,51.5-68.4c30.1-19.9,69.2-24.5,104.2-17.8c24.8,4.8,47.8,16.8,65.7,34.8c7.3,7.3,14.4,15.8,18.8,25.2
			C1562.8,303.2,1566.1,301.2,1565,299L1565,299z"/>
	</g>
	<g>
		<defs>
			
				<ellipse id="SVGID_1_" transform="matrix(0.9396 -0.3422 0.3422 0.9396 -142.252 338.8488)" cx="889.2" cy="572.6" rx="98.5" ry="98.5"/>
		</defs>
		<clipPath id="SVGID_2_">
			<use xlink:href="#SVGID_1_"  style="overflow:visible;"/>
		</clipPath>
		<g class="st2">
			<g>
				<g>
					
						<rect x="843.2" y="636.1" transform="matrix(0.7071 -0.7071 0.7071 0.7071 -173.2785 866.1668)" class="st1" width="231.4" height="12.3"/>
				</g>
				<g>
					
						<rect x="825.8" y="618.7" transform="matrix(0.707 -0.7072 0.7072 0.707 -166.0419 848.8732)" class="st1" width="231.4" height="12.3"/>
				</g>
				<g>
					
						<rect x="808.4" y="601.3" transform="matrix(0.707 -0.7072 0.7072 0.707 -158.8164 831.5128)" class="st1" width="231.4" height="12.3"/>
				</g>
				<g>
					
						<rect x="791" y="583.8" transform="matrix(0.7073 -0.7069 0.7069 0.7073 -151.7022 813.6276)" class="st1" width="231.4" height="12.3"/>
				</g>
				<g>
					
						<rect x="773.5" y="566.4" transform="matrix(0.7072 -0.707 0.707 0.7072 -144.4536 796.3922)" class="st1" width="231.4" height="12.3"/>
				</g>
				<g>
					
						<rect x="756.1" y="549" transform="matrix(0.7072 -0.707 0.707 0.7072 -137.2519 778.9276)" class="st1" width="231.4" height="12.3"/>
				</g>
				<g>
					
						<rect x="738.7" y="531.6" transform="matrix(0.7071 -0.7071 0.7071 0.7071 -130.0199 761.6031)" class="st1" width="231.4" height="12.3"/>
				</g>
				<g>
					
						<rect x="721.3" y="514.2" transform="matrix(0.707 -0.7072 0.7072 0.707 -122.7754 744.3233)" class="st1" width="231.4" height="12.3"/>
				</g>
				<g>
					
						<rect x="703.9" y="496.8" transform="matrix(0.7071 -0.7071 0.7071 0.7071 -115.5873 726.806)" class="st1" width="231.4" height="12.3"/>
				</g>
			</g>
		</g>
	</g>
	<g>
		<defs>
			<path id="SVGID_3_" d="M1427.6,1095.7c0,38.3-31.1,69.4-69.4,69.4c-38.3,0-69.4-31.1-69.4-69.4c0-38.3,31.1-69.4,69.4-69.4
				C1396.5,1026.3,1427.6,1057.3,1427.6,1095.7z"/>
		</defs>
		<clipPath id="SVGID_4_">
			<use xlink:href="#SVGID_3_"  style="overflow:visible;"/>
		</clipPath>
		<g class="st3">
			<g>
				<g>
					
						<rect x="1325.7" y="1140.4" transform="matrix(0.7071 -0.7071 0.7071 0.7071 -397.2938 1330.3643)" class="st1" width="163" height="8.7"/>
				</g>
				<g>
					
						<rect x="1313.5" y="1128.2" transform="matrix(0.707 -0.7072 0.7072 0.707 -392.1967 1318.2393)" class="st1" width="163" height="8.7"/>
				</g>
				<g>
					
						<rect x="1301.2" y="1115.9" transform="matrix(0.7069 -0.7073 0.7073 0.7069 -387.0842 1306.2413)" class="st1" width="163" height="8.7"/>
				</g>
				<g>
					
						<rect x="1288.9" y="1103.6" transform="matrix(0.7072 -0.707 0.707 0.7072 -382.0763 1293.2679)" class="st1" width="163" height="8.7"/>
				</g>
				<g>
					
						<rect x="1276.6" y="1091.3" transform="matrix(0.7072 -0.7071 0.7071 0.7072 -376.9778 1281.155)" class="st1" width="163" height="8.7"/>
				</g>
				<g>
					
						<rect x="1264.4" y="1079.1" transform="matrix(0.7072 -0.707 0.707 0.7072 -371.8963 1268.8711)" class="st1" width="163" height="8.7"/>
				</g>
				<g>
					
						<rect x="1252.1" y="1066.8" transform="matrix(0.707 -0.7072 0.7072 0.707 -366.7838 1256.8798)" class="st1" width="163" height="8.7"/>
				</g>
				<g>
					
						<rect x="1239.8" y="1054.5" transform="matrix(0.707 -0.7072 0.7072 0.707 -361.7005 1244.6082)" class="st1" width="163" height="8.7"/>
				</g>
				<g>
					
						<rect x="1227.6" y="1042.3" transform="matrix(0.7072 -0.707 0.707 0.7072 -356.6487 1232.0648)" class="st1" width="163" height="8.7"/>
				</g>
			</g>
		</g>
	</g>
	<path class="st4" d="M1364.7,8.3c-9.2-10.3-25.1-11.1-35.3-1.9L938.7,357.2c-10.3,9.2-26.1,8.4-35.3-1.9
		c-9.2-10.3-8.4-26.1,1.9-35.3l15.4-13.8l34.2-30.7c10.3-9.2,11.1-25,1.9-35.3c-9.2-10.3-25.1-11.1-35.3-1.9L732.5,407.9l-24.1,21.6
		c-10.3,9.2-26.1,8.4-35.3-1.9c-8.2-9.2-8.4-22.7-1.1-32.1l58-52.1c10.3-9.2,11.1-25,1.9-35.3c-9.2-10.3-25-11.1-35.3-1.9
		l-659.2,592c-10.3,9.2-11.1,25.1-1.9,35.3c9.2,10.3,25.1,11.1,35.3,1.9L572.3,485c10.1-6.3,23.6-4.7,31.8,4.5
		c9.2,10.3,8.4,26.1-1.9,35.3l-52,46.7L381.6,723c-10.3,9.2-11.1,25-1.9,35.3c9.2,10.3,25.1,11.1,35.3,1.9l69.5-62.4
		c0,0,20.8-13.2,34.6,2.1c13.8,15.3,37.7,0.2,53.6-14.1l-222.7,200c-10.3,9.2-11.1,25.1-1.9,35.3c9.2,10.3,25.1,11.1,35.3,1.9
		l979.3-879.4C1373.1,34.4,1373.9,18.6,1364.7,8.3z"/>
	<linearGradient id="SVGID_5_" gradientUnits="userSpaceOnUse" x1="632.4577" y1="1359.9729" x2="1974.4292" y2="1359.9729">
		<stop  offset="0" style="stop-color:#F0797F"/>
		<stop  offset="1" style="stop-color:#F9198A"/>
	</linearGradient>
	<path class="st5" d="M1968,897.4c-9.2-10.3-25.1-11.1-35.3-1.9L1542,1246.3c-10.3,9.2-26.1,8.4-35.3-1.9
		c-9.2-10.3-8.4-26.1,1.9-35.3l15.4-13.8l34.2-30.7c10.3-9.2,11.1-25.1,1.9-35.3c-9.2-10.3-25.1-11.1-35.3-1.9L1335.9,1297
		l-24.1,21.6c-10.3,9.2-26.1,8.4-35.3-1.9c-8.2-9.2-8.4-22.7-1.1-32.1l58-52.1c10.3-9.2,11.1-25,1.9-35.3
		c-9.2-10.3-25-11.1-35.3-1.9l-659.2,592c-10.3,9.2-11.1,25-1.9,35.3c9.2,10.3,25,11.1,35.3,1.9l501.4-450.3
		c10.1-6.3,23.6-4.7,31.8,4.5c9.2,10.3,8.4,26.1-1.9,35.3l-52,46.7l-168.6,151.4c-10.3,9.2-11.1,25.1-1.9,35.3
		c9.2,10.3,25.1,11.1,35.3,1.9l69.5-62.4c0,0,20.8-13.2,34.6,2.1c13.8,15.3,37.7,0.2,53.6-14.1l-222.7,200
		c-10.3,9.2-11.1,25.1-1.9,35.3c9.2,10.3,25.1,11.1,35.3,1.9l979.3-879.4C1976.4,923.5,1977.3,907.7,1968,897.4z"/>
	<path class="st4" d="M1224.9,1000.5c-8.8-9.9-23.9-10.8-33.8-2l-6.6,5.9l-23.9,21.2c-9.9,8.8-25,7.9-33.8-2c-8.8-9.9-7.9-25,2-33.8
		l23.8-21.2l347-308c9.9-8.8,10.8-23.9,2-33.8c-8.8-9.9-23.9-10.8-33.8-2l-570.5,506.4c-9.9,8.8-10.8,23.9-2,33.8
		c8.8,9.9,23.9,10.8,33.8,2l50.6-44.9l36.5-32.4c9.9-8.8,25-7.9,33.8,2c8.8,9.9,7.9,25-2,33.8l-36.5,32.4l-112.1,99.5
		c-9.9,8.8-10.8,23.9-2,33.8c8.8,9.9,23.9,10.8,33.8,2l291.7-259C1232.8,1025.5,1233.7,1010.4,1224.9,1000.5z"/>
	<linearGradient id="SVGID_6_" gradientUnits="userSpaceOnUse" x1="327.2717" y1="524.9589" x2="916.1022" y2="524.9589">
		<stop  offset="0" style="stop-color:#F9ED32"/>
		<stop  offset="1" style="stop-color:#F7941E"/>
	</linearGradient>
	<path class="st6" d="M913.3,322c-4-4.5-11-4.9-15.5-0.8L726.4,475.1c-4.5,4.1-11.5,3.7-15.5-0.8c-4.1-4.5-3.7-11.5,0.8-15.5
		l6.7-6.1l15-13.5c4.5-4.1,4.9-11,0.8-15.5c-4.1-4.5-11-4.9-15.5-0.8l-82.9,74.4l-10.6,9.5c-4.5,4.1-11.5,3.7-15.5-0.8
		c-3.6-4-3.7-10-0.5-14.1l25.4-22.8c4.5-4.1,4.9-11,0.8-15.5c-4.1-4.5-11-4.9-15.5-0.8L330.9,712.4c-4.5,4.1-4.9,11-0.8,15.5
		c4.1,4.5,11,4.9,15.5,0.8l220-197.6c4.4-2.8,10.3-2,14,2c4.1,4.5,3.7,11.5-0.8,15.5l-22.8,20.5l-74,66.4c-4.5,4.1-4.9,11-0.8,15.5
		c4.1,4.5,11,4.9,15.5,0.8l30.5-27.4c0,0,9.1-5.8,15.2,0.9c6,6.7,16.6,0.1,23.5-6.2L468.1,707c-4.5,4.1-4.9,11-0.8,15.5
		c4,4.5,11,4.9,15.5,0.8l429.7-385.9C917,333.4,917.3,326.5,913.3,322z"/>
	<linearGradient id="SVGID_7_" gradientUnits="userSpaceOnUse" x1="989.6733" y1="276.2047" x2="1461.8203" y2="276.2047">
		<stop  offset="0" style="stop-color:#B88CF0"/>
		<stop  offset="1" style="stop-color:#512DF9"/>
	</linearGradient>
	<path class="st7" d="M1459.6,113.5c-3.2-3.6-8.8-3.9-12.4-0.7l-137.4,123.4c-3.6,3.2-9.2,3-12.4-0.7c-3.2-3.6-2.9-9.2,0.7-12.4
		l5.4-4.9l12-10.8c3.6-3.2,3.9-8.8,0.7-12.4c-3.2-3.6-8.8-3.9-12.4-0.7l-66.5,59.7l-8.5,7.6c-3.6,3.2-9.2,2.9-12.4-0.7
		c-2.9-3.2-3-8-0.4-11.3l20.4-18.3c3.6-3.2,3.9-8.8,0.7-12.4c-3.2-3.6-8.8-3.9-12.4-0.7L992.6,426.5c-3.6,3.2-3.9,8.8-0.7,12.4
		c3.2,3.6,8.8,3.9,12.4,0.7l176.4-158.4c3.6-2.2,8.3-1.6,11.2,1.6c3.2,3.6,2.9,9.2-0.7,12.4l-18.3,16.4l-59.3,53.3
		c-3.6,3.2-3.9,8.8-0.7,12.4c3.2,3.6,8.8,3.9,12.4,0.7l24.5-22c0,0,7.3-4.6,12.2,0.8c4.8,5.4,13.3,0.1,18.9-5l-78.3,70.4
		c-3.6,3.2-3.9,8.8-0.7,12.4c3.2,3.6,8.8,3.9,12.4,0.7l344.6-309.4C1462.5,122.6,1462.8,117.1,1459.6,113.5z"/>
	<linearGradient id="SVGID_8_" gradientUnits="userSpaceOnUse" x1="1385.6012" y1="741.1833" x2="1978.5128" y2="741.1833">
		<stop  offset="0" style="stop-color:#F9ED32"/>
		<stop  offset="1" style="stop-color:#F7941E"/>
	</linearGradient>
	<path class="st8" d="M1975.7,536.8c-4.1-4.5-11.1-4.9-15.6-0.8l-172.6,155c-4.5,4.1-11.5,3.7-15.6-0.8c-4.1-4.5-3.7-11.5,0.8-15.6
		l6.8-6.1l15.1-13.6c4.5-4.1,4.9-11.1,0.8-15.6c-4.1-4.5-11.1-4.9-15.6-0.8l-83.5,74.9l-10.6,9.6c-4.5,4.1-11.5,3.7-15.6-0.8
		c-3.6-4.1-3.7-10.1-0.5-14.2l25.6-23c4.5-4.1,4.9-11.1,0.8-15.6c-4.1-4.5-11.1-4.9-15.6-0.8L1389.3,930c-4.5,4.1-4.9,11.1-0.8,15.6
		c4.1,4.5,11.1,4.9,15.6,0.8l221.5-199c4.5-2.8,10.4-2.1,14.1,2c4.1,4.5,3.7,11.5-0.8,15.6l-23,20.6l-74.5,66.9
		c-4.5,4.1-4.9,11.1-0.8,15.6c4.1,4.5,11.1,4.9,15.6,0.8l30.7-27.6c0,0,9.2-5.8,15.3,0.9c6.1,6.8,16.7,0.1,23.7-6.2l-98.4,88.4
		c-4.5,4.1-4.9,11.1-0.8,15.6c4.1,4.5,11.1,4.9,15.6,0.8l432.7-388.6C1979.4,548.3,1979.8,541.3,1975.7,536.8z"/>
	<linearGradient id="SVGID_9_" gradientUnits="userSpaceOnUse" x1="1004.5932" y1="1249.1115" x2="1219.9005" y2="1249.1115">
		<stop  offset="0" style="stop-color:#7EDEF0"/>
		<stop  offset="1" style="stop-color:#1FF9B3"/>
	</linearGradient>
	<path class="st9" d="M1218.9,1174.9c-1.5-1.7-4-1.8-5.7-0.3l-62.7,56.3c-1.7,1.5-4.2,1.3-5.7-0.3c-1.5-1.7-1.3-4.2,0.3-5.7l2.5-2.2
		l5.5-4.9c1.6-1.5,1.8-4,0.3-5.7c-1.5-1.6-4-1.8-5.7-0.3l-30.3,27.2l-3.9,3.5c-1.6,1.5-4.2,1.3-5.7-0.3c-1.3-1.5-1.4-3.6-0.2-5.2
		l9.3-8.4c1.6-1.5,1.8-4,0.3-5.7c-1.5-1.7-4-1.8-5.7-0.3l-105.8,95c-1.6,1.5-1.8,4-0.3,5.7c1.5,1.6,4,1.8,5.7,0.3l80.5-72.2
		c1.6-1,3.8-0.7,5.1,0.7c1.5,1.6,1.3,4.2-0.3,5.7l-8.3,7.5l-27.1,24.3c-1.6,1.5-1.8,4-0.3,5.7c1.5,1.6,4,1.8,5.7,0.3l11.2-10
		c0,0,3.3-2.1,5.5,0.3c2.2,2.5,6.1,0,8.6-2.3l-35.7,32.1c-1.6,1.5-1.8,4-0.3,5.7c1.5,1.6,4,1.8,5.7,0.3l157.1-141.1
		C1220.2,1179.1,1220.4,1176.5,1218.9,1174.9z"/>
	<linearGradient id="SVGID_10_" gradientUnits="userSpaceOnUse" x1="586.5484" y1="1501.4496" x2="1058.6954" y2="1501.4496">
		<stop  offset="0" style="stop-color:#7EDEF0"/>
		<stop  offset="1" style="stop-color:#1FF9B3"/>
	</linearGradient>
	<path class="st10" d="M1056.4,1338.7c-3.2-3.6-8.8-3.9-12.4-0.7l-137.4,123.4c-3.6,3.2-9.2,3-12.4-0.7c-3.2-3.6-2.9-9.2,0.7-12.4
		l5.4-4.9l12-10.8c3.6-3.2,3.9-8.8,0.7-12.4c-3.2-3.6-8.8-3.9-12.4-0.7l-66.5,59.7l-8.5,7.6c-3.6,3.2-9.2,2.9-12.4-0.7
		c-2.9-3.2-3-8-0.4-11.3l20.4-18.3c3.6-3.2,3.9-8.8,0.7-12.4c-3.2-3.6-8.8-3.9-12.4-0.7l-231.9,208.3c-3.6,3.2-3.9,8.8-0.7,12.4
		c3.2,3.6,8.8,3.9,12.4,0.7l176.4-158.4c3.6-2.2,8.3-1.6,11.2,1.6c3.2,3.6,2.9,9.2-0.7,12.4l-18.3,16.4l-59.3,53.3
		c-3.6,3.2-3.9,8.8-0.7,12.4c3.2,3.6,8.8,3.9,12.4,0.7l24.5-22c0,0,7.3-4.6,12.2,0.8c4.8,5.4,13.3,0.1,18.9-5l-78.3,70.4
		c-3.6,3.2-3.9,8.8-0.7,12.4c3.2,3.6,8.8,3.9,12.4,0.7l344.6-309.4C1059.4,1347.9,1059.7,1342.3,1056.4,1338.7z"/>
	<linearGradient id="SVGID_11_" gradientUnits="userSpaceOnUse" x1="1385.6018" y1="493.6674" x2="1612.7583" y2="493.6674">
		<stop  offset="0" style="stop-color:#F0797F"/>
		<stop  offset="1" style="stop-color:#F9198A"/>
	</linearGradient>
	<path class="st11" d="M1508.9,508.9c-3.2-3.6-8.8-4-12.4-0.7l-2.4,2.2l-8.8,7.8c-3.6,3.2-9.2,2.9-12.4-0.7
		c-3.2-3.6-2.9-9.2,0.7-12.4l8.8-7.8L1609.8,384c3.6-3.2,4-8.8,0.7-12.4c-3.2-3.6-8.8-4-12.4-0.7l-209.6,186
		c-3.6,3.2-4,8.8-0.7,12.4c3.2,3.6,8.8,4,12.4,0.7l18.6-16.5l13.4-11.9c3.6-3.2,9.2-2.9,12.4,0.7c3.2,3.6,2.9,9.2-0.7,12.4
		l-13.4,11.9l-41.2,36.5c-3.6,3.2-4,8.8-0.7,12.4c3.2,3.6,8.8,4,12.4,0.7l107.2-95.1C1511.8,518.1,1512.1,512.5,1508.9,508.9z"/>
	
		<linearGradient id="SVGID_12_" gradientUnits="userSpaceOnUse" x1="372.138" y1="1166.2604" x2="746.6177" y2="1166.2604" gradientTransform="matrix(-1 0 0 -1 1119.8846 2331.2322)">
		<stop  offset="0" style="stop-color:#F0797F"/>
		<stop  offset="1" style="stop-color:#F9198A"/>
	</linearGradient>
	<path class="st12" d="M544.5,1139.9c5.3,6,14.5,6.5,20.5,1.2l4-3.6l14.5-12.8c6-5.3,15.2-4.8,20.5,1.2c5.3,6,4.8,15.2-1.2,20.5
		l-14.4,12.8l-210.1,186.5c-6,5.3-6.5,14.5-1.2,20.5c5.3,6,14.5,6.5,20.5,1.2l345.5-306.6c6-5.3,6.5-14.5,1.2-20.5
		c-5.3-6-14.5-6.5-20.5-1.2l-30.6,27.2l-22.1,19.6c-6,5.3-15.2,4.8-20.5-1.2c-5.3-6-4.8-15.2,1.2-20.5l22.1-19.6l67.9-60.2
		c6-5.3,6.5-14.5,1.2-20.5c-5.3-6-14.5-6.5-20.5-1.2l-176.7,156.8C539.7,1124.7,539.1,1133.9,544.5,1139.9z"/>
	<linearGradient id="SVGID_13_" gradientUnits="userSpaceOnUse" x1="586.5483" y1="733.8229" x2="813.7044" y2="733.8229">
		<stop  offset="0" style="stop-color:#7EDEF0"/>
		<stop  offset="1" style="stop-color:#1FF9B3"/>
	</linearGradient>
	<path class="st13" d="M709.9,749.1c-3.2-3.6-8.8-4-12.4-0.7l-2.4,2.2l-8.8,7.8c-3.6,3.2-9.2,2.9-12.4-0.7
		c-3.2-3.6-2.9-9.2,0.7-12.4l8.8-7.8l127.5-113.1c3.6-3.2,4-8.8,0.7-12.4c-3.2-3.6-8.8-4-12.4-0.7L589.5,797
		c-3.6,3.2-4,8.8-0.7,12.4c3.2,3.6,8.8,4,12.4,0.7l18.6-16.5l13.4-11.9c3.6-3.2,9.2-2.9,12.4,0.7c3.2,3.6,2.9,9.2-0.7,12.4
		l-13.4,11.9l-41.2,36.5c-3.6,3.2-4,8.8-0.7,12.4c3.2,3.6,8.8,4,12.4,0.7l107.2-95.1C712.8,758.3,713.1,752.7,709.9,749.1z"/>
	<linearGradient id="SVGID_14_" gradientUnits="userSpaceOnUse" x1="717.7465" y1="1345.4421" x2="679.9483" y2="1277.0947">
		<stop  offset="0" style="stop-color:#7EDEF0"/>
		<stop  offset="1" style="stop-color:#1FF9B3"/>
	</linearGradient>
	<path class="st14" d="M754.4,1313.6c0,29.9-24.3,54.2-54.2,54.2c-29.9,0-54.2-24.3-54.2-54.2c0-29.9,24.3-54.2,54.2-54.2
		C730.1,1259.4,754.4,1283.6,754.4,1313.6z"/>
	<linearGradient id="SVGID_15_" gradientUnits="userSpaceOnUse" x1="1537.3588" y1="1465.7411" x2="1532.6987" y2="1361.1487">
		<stop  offset="0" style="stop-color:#7EDEF0"/>
		<stop  offset="1" style="stop-color:#1FF9B3"/>
	</linearGradient>
	<path class="st15" d="M1588.4,1395.3c0,29.9-24.3,54.2-54.2,54.2c-29.9,0-54.2-24.3-54.2-54.2c0-29.9,24.3-54.2,54.2-54.2
		C1564.2,1341.1,1588.4,1365.3,1588.4,1395.3z"/>
	<linearGradient id="SVGID_16_" gradientUnits="userSpaceOnUse" x1="1027.1005" y1="492.6389" x2="1008.4603" y2="540.4044">
		<stop  offset="0" style="stop-color:#B88CF0"/>
		<stop  offset="1" style="stop-color:#512DF9"/>
	</linearGradient>
	<path class="st16" d="M1044.7,525c0,16.7-13.5,30.3-30.3,30.3c-16.7,0-30.3-13.5-30.3-30.3c0-16.7,13.5-30.3,30.3-30.3
		C1031.2,494.7,1044.7,508.3,1044.7,525z"/>
	<linearGradient id="SVGID_17_" gradientUnits="userSpaceOnUse" x1="1512.9832" y1="306.3106" x2="1471.2444" y2="413.2666">
		<stop  offset="0" style="stop-color:#B88CF0"/>
		<stop  offset="1" style="stop-color:#512DF9"/>
	</linearGradient>
	<path class="st17" d="M1552.5,378.7c0,37.4-30.3,67.7-67.7,67.7s-67.7-30.3-67.7-67.7s30.3-67.7,67.7-67.7
		S1552.5,341.3,1552.5,378.7z"/>
	<linearGradient id="SVGID_18_" gradientUnits="userSpaceOnUse" x1="969.7905" y1="1155.9657" x2="961.5821" y2="971.7342">
		<stop  offset="0" style="stop-color:#7EDEF0"/>
		<stop  offset="1" style="stop-color:#1FF9B3"/>
	</linearGradient>
	<path class="st18" d="M1059.8,1031.8c0,52.8-42.8,95.5-95.5,95.5c-52.8,0-95.5-42.8-95.5-95.5c0-52.8,42.8-95.5,95.5-95.5
		C1017,936.3,1059.8,979.1,1059.8,1031.8z"/>
	<linearGradient id="SVGID_19_" gradientUnits="userSpaceOnUse" x1="1240.3013" y1="647.6774" x2="1211.6371" y2="736.3366">
		<stop  offset="0" style="stop-color:#F0797F"/>
		<stop  offset="1" style="stop-color:#F9198A"/>
	</linearGradient>
	<path class="st19" d="M1271.1,704.8c0,28.8-22,52.2-49.2,52.2c-27.2,0-49.2-23.4-49.2-52.2c0-28.8,22-52.2,49.2-52.2
		C1249,652.6,1271.1,676,1271.1,704.8z"/>
	<g>
		<linearGradient id="SVGID_20_" gradientUnits="userSpaceOnUse" x1="1314.5297" y1="660.9657" x2="1589.6852" y2="660.9657">
			<stop  offset="0" style="stop-color:#F0797F"/>
			<stop  offset="1" style="stop-color:#F9198A"/>
		</linearGradient>
		<path class="st20" d="M1444.3,817.8c-28.6,25.4-72.5,25.5-101-0.1c-28.5-25.5-32.5-69.2-10.7-100.1c6.2-8.8,15-15.8,22.9-22.9
			c12.7-11.5,25.4-22.9,38.2-34.4c36.8-33.1,73.5-66.3,110.3-99.4c26.7-24.1,53.5-48.2,80.2-72.3c1.6-1.4,3.2-2.9,4.8-4.3
			c1.9-1.7-0.9-4.4-2.7-2.7c-19,17.2-38.1,34.3-57.1,51.5c-37,33.4-74.1,66.8-111.1,100.2c-24.9,22.5-49.8,44.9-74.7,67.4
			c-17.1,15.4-27.8,35.5-28.7,58.8c-1.4,36.1,23.3,68.8,57.7,78.8c26.1,7.6,54.6,0.5,74.8-17.5
			C1449,818.9,1446.2,816.2,1444.3,817.8L1444.3,817.8z"/>
	</g>
	<g>
		
			<linearGradient id="SVGID_21_" gradientUnits="userSpaceOnUse" x1="2589.8335" y1="1076.6714" x2="2864.9885" y2="1076.6714" gradientTransform="matrix(-1 0 0 -1 3451.5371 2145.7087)">
			<stop  offset="0" style="stop-color:#F0797F"/>
			<stop  offset="1" style="stop-color:#F9198A"/>
		</linearGradient>
		<path class="st21" d="M731.9,912.2c28.6-25.4,72.5-25.5,101,0.1c28.5,25.5,32.5,69.2,10.7,100.1c-6.2,8.8-15,15.8-22.9,22.9
			c-12.7,11.5-25.4,22.9-38.2,34.4c-36.8,33.1-73.5,66.3-110.3,99.4c-26.7,24.1-53.5,48.2-80.2,72.3c-1.6,1.4-3.2,2.9-4.8,4.3
			c-1.9,1.7,0.9,4.4,2.7,2.7c19-17.2,38.1-34.3,57.1-51.5c37-33.4,74.1-66.8,111.1-100.2c24.9-22.5,49.8-44.9,74.7-67.4
			c17.1-15.4,27.8-35.5,28.7-58.8c1.4-36.1-23.3-68.8-57.7-78.8c-26.1-7.6-54.6-0.5-74.8,17.5C727.3,911.1,730,913.8,731.9,912.2
			L731.9,912.2z"/>
	</g>
	<g>
		
			<linearGradient id="SVGID_22_" gradientUnits="userSpaceOnUse" x1="2807.0913" y1="1753.1964" x2="3082.2463" y2="1753.1964" gradientTransform="matrix(-1 0 0 -1 3451.5371 2145.7087)">
			<stop  offset="0" style="stop-color:#F0797F"/>
			<stop  offset="1" style="stop-color:#F9198A"/>
		</linearGradient>
		<path class="st22" d="M514.6,235.7c28.6-25.4,72.5-25.5,101,0.1c28.5,25.5,32.5,69.2,10.7,100.1c-6.2,8.8-15,15.8-22.9,22.9
			c-12.7,11.5-25.4,22.9-38.2,34.4c-36.8,33.1-73.5,66.3-110.3,99.4c-26.7,24.1-53.5,48.2-80.2,72.3c-1.6,1.4-3.2,2.9-4.8,4.3
			c-1.9,1.7,0.9,4.4,2.7,2.7c19-17.2,38.1-34.3,57.1-51.5c37-33.4,74.1-66.8,111.1-100.2c24.9-22.5,49.8-44.9,74.7-67.4
			c17.1-15.4,27.8-35.5,28.7-58.8c1.4-36.1-23.3-68.8-57.7-78.8c-26.1-7.6-54.6-0.5-74.8,17.5C510,234.6,512.8,237.3,514.6,235.7
			L514.6,235.7z"/>
	</g>
	<linearGradient id="SVGID_23_" gradientUnits="userSpaceOnUse" x1="1456.976" y1="781.6017" x2="1437.4901" y2="841.8717">
		<stop  offset="0" style="stop-color:#F0797F"/>
		<stop  offset="1" style="stop-color:#F9198A"/>
	</linearGradient>
	<circle class="st23" cx="1444.4" cy="820.4" r="35.3"/>
</g>
<rect x="506.9" y="302.7" class="st24" width="1188" height="1188"/>
</svg>
